<?xml version="1.0" encoding="UTF-8"?>
<!DOCTYPE svg PUBLIC "-//W3C//DTD SVG 1.1//EN" "http://www.w3.org/Graphics/SVG/1.1/DTD/svg11.dtd">
<svg xmlns="http://www.w3.org/2000/svg" version="1.1" width="512px" height="512px" style="shape-rendering:geometricPrecision; text-rendering:geometricPrecision; image-rendering:optimizeQuality; fill-rule:evenodd; clip-rule:evenodd" xmlns:xlink="http://www.w3.org/1999/xlink">
<g><path style="opacity:0.971" fill="#fefffe" d="M 190.5,48.5 C 223.137,47.7245 243.637,63.0578 252,94.5C 254.73,127.072 240.563,148.072 209.5,157.5C 209.334,166.839 209.5,176.173 210,185.5C 226.924,188.961 240.924,197.294 252,210.5C 260.084,205.541 268.251,200.707 276.5,196C 269.297,165.936 279.297,143.602 306.5,129C 331.832,119.69 353.665,124.857 372,144.5C 386.818,165.969 387.818,187.969 375,210.5C 355.942,234.518 332.109,240.685 303.5,229C 297.774,225.944 292.608,222.11 288,217.5C 279.93,222.12 271.763,226.62 263.5,231C 270.164,247.327 270.164,263.66 263.5,280C 271.662,284.247 279.662,288.747 287.5,293.5C 309.463,274.155 333.463,271.322 359.5,285C 384.956,305.669 390.456,330.836 376,360.5C 361.275,381.749 341.109,389.916 315.5,385C 281.91,373.154 268.91,349.821 276.5,315C 268.251,310.293 260.084,305.459 252,300.5C 240.983,314.092 226.816,322.092 209.5,324.5C 209.5,334.167 209.5,343.833 209.5,353.5C 233.082,359.582 247.248,374.582 252,398.5C 254.547,430.275 240.714,451.108 210.5,461C 180.616,465.809 159.116,454.642 146,427.5C 137.156,399.392 144.656,376.892 168.5,360C 173.773,356.743 179.439,354.577 185.5,353.5C 185.5,343.833 185.5,334.167 185.5,324.5C 157.936,319.11 139.436,303.11 130,276.5C 121.285,237.104 134.785,208.27 170.5,190C 175.339,188.417 180.172,186.917 185,185.5C 185.5,176.173 185.666,166.839 185.5,157.5C 158.459,149.935 144.126,132.101 142.5,104C 144.796,73.5439 160.796,55.0439 190.5,48.5 Z M 197.5,78.5 C 217.94,82.3748 225.44,94.3748 220,114.5C 212.833,126.827 202.333,130.994 188.5,127C 172.285,117.642 168.785,104.809 178,88.5C 183.287,82.5854 189.787,79.2521 197.5,78.5 Z M 326.5,154.5 C 342.895,155.337 351.895,163.837 353.5,180C 352.019,194.815 343.852,202.981 329,204.5C 310.837,202.007 302.837,191.673 305,173.5C 308.315,162.678 315.482,156.345 326.5,154.5 Z M 190.5,219.5 C 212.439,217.88 226.606,227.546 233,248.5C 235.1,270.472 225.6,284.639 204.5,291C 182.029,293.178 167.862,283.345 162,261.5C 160.345,239.782 169.845,225.782 190.5,219.5 Z M 324.5,306.5 C 344.958,306.79 354.458,317.124 353,337.5C 347.394,352.055 336.894,357.888 321.5,355C 305.771,347.699 300.938,335.866 307,319.5C 311.049,312.599 316.882,308.266 324.5,306.5 Z M 192.5,382.5 C 211.99,381.826 221.823,391.159 222,410.5C 217.687,426.745 207.187,433.578 190.5,431C 176.146,425.126 170.646,414.626 174,399.5C 177.4,390.733 183.567,385.067 192.5,382.5 Z"/></g>
</svg>
