<svg width="62" height="61" viewBox="0 0 62 61" fill="none" xmlns="http://www.w3.org/2000/svg">
<path d="M30.7454 0.0263079C15.024 0.0263079 16.0182 6.75684 16.0182 6.75684V13.7504H30.9691V15.9428H10.064C10.064 15.9428 0 14.7151 0 30.511C0 46.3069 8.88595 45.6645 8.88595 45.6645H14.0165V38.296C14.0165 38.296 13.7286 29.4981 22.6522 29.4981H37.6253C37.6253 29.4981 45.9776 29.6297 45.9776 21.4916V8.13802C45.9776 8.13802 47.2441 0 30.8274 0L30.7454 0.0263079ZM22.4817 4.71137C23.0132 4.69809 23.5368 4.84117 23.9862 5.12251C24.4356 5.40385 24.7906 5.81082 25.0064 6.29194C25.2221 6.77307 25.2889 7.30674 25.1984 7.82546C25.1078 8.34419 24.8639 8.82467 24.4975 9.20614C24.1311 9.58761 23.6587 9.85293 23.14 9.96856C22.6213 10.0842 22.0796 10.0449 21.5834 9.85573C21.0872 9.66654 20.6589 9.33592 20.3525 8.90568C20.0461 8.47544 19.8755 7.96491 19.8622 7.43866V7.39481C19.8622 6.68893 20.1454 6.01196 20.6495 5.51283C21.1537 5.0137 21.8374 4.73329 22.5504 4.73329L22.4817 4.71137Z" fill="url(#paint0_linear_10_214)"/>
<path d="M31.1882 60.9956C46.9097 60.9956 45.9155 54.2431 45.9155 54.2431V47.2714H30.9668V45.0791H51.9361C51.9361 45.0791 62.0001 46.1928 62.0001 30.489C62.0001 14.7851 53.1141 15.3354 53.1141 15.3354H47.9172V22.6075C47.9172 22.6075 48.205 31.4054 39.2814 31.4054H24.3018C24.3018 31.4054 15.9428 31.2804 15.9428 39.4184V52.8619C15.9428 52.8619 14.6762 61 31.093 61H31.1816L31.1882 60.9956ZM39.4519 56.2886C38.9204 56.3019 38.3969 56.1588 37.9475 55.8775C37.4981 55.5961 37.1431 55.1891 36.9273 54.708C36.7115 54.2269 36.6447 53.6932 36.7353 53.1745C36.8259 52.6558 37.0698 52.1753 37.4362 51.7938C37.8026 51.4124 38.275 51.147 38.7937 51.0314C39.3124 50.9158 39.8541 50.955 40.3502 51.1442C40.8464 51.3334 41.2748 51.6641 41.5811 52.0943C41.8875 52.5245 42.0581 53.0351 42.0714 53.5613V53.6271C42.0714 54.333 41.7882 55.0099 41.2841 55.5091C40.78 56.0082 40.0962 56.2886 39.3833 56.2886H39.4519Z" fill="url(#paint1_linear_10_214)"/>
<defs>
<linearGradient id="paint0_linear_10_214" x1="6.1273" y1="5.99587" x2="35.2556" y2="35.349" gradientUnits="userSpaceOnUse">
<stop stop-color="#387EB8"/>
<stop offset="1" stop-color="#366994"/>
</linearGradient>
<linearGradient id="paint1_linear_10_214" x1="23.5323" y1="24.9282" x2="56.8558" y2="54.3113" gradientUnits="userSpaceOnUse">
<stop stop-color="#FFE052"/>
<stop offset="1" stop-color="#FFC331"/>
</linearGradient>
</defs>
</svg>
